<?xml version="1.0" encoding="utf-8"?>
<!-- Generator: Adobe Illustrator 27.5.0, SVG Export Plug-In . SVG Version: 6.00 Build 0)  -->
<svg version="1.1" xmlns="http://www.w3.org/2000/svg" xmlns:xlink="http://www.w3.org/1999/xlink" x="0px" y="0px"
	 viewBox="0 0 500 500" style="enable-background:new 0 0 500 500;" xml:space="preserve">
<g id="BACKGROUND">
	<radialGradient id="SVGID_1_" cx="222.114" cy="163.4595" r="456.3384" gradientUnits="userSpaceOnUse">
		<stop  offset="0" style="stop-color:#1A1D29"/>
		<stop  offset="1" style="stop-color:#121322"/>
	</radialGradient>
	<rect style="fill:url(#SVGID_1_);" width="500" height="500"/>
</g>
<g id="OBJECTS">
	<g>
		
			<linearGradient id="SVGID_00000075876926325424697880000003867682643661389969_" gradientUnits="userSpaceOnUse" x1="282.7738" y1="103.3154" x2="265.0526" y2="124.3184">
			<stop  offset="0" style="stop-color:#FFB445"/>
			<stop  offset="0.1102" style="stop-color:#FFAC4A"/>
			<stop  offset="0.2766" style="stop-color:#FF9858"/>
			<stop  offset="0.4784" style="stop-color:#FF7670"/>
			<stop  offset="0.7082" style="stop-color:#FF4690"/>
			<stop  offset="0.9583" style="stop-color:#FF0BBA"/>
			<stop  offset="1" style="stop-color:#FF00C1"/>
		</linearGradient>
		<path style="fill:url(#SVGID_00000075876926325424697880000003867682643661389969_);" d="M253.916,94.732
			c53.57-0.804,47.354,49.507,47.354,49.507l-16.438-0.161c6.45-45.725-32.789-45.695-35.124-45.793
			c-9.379-0.393-23.327,9.817-21.692,45.237l-16.456-0.161C211.559,143.361,216.147,95.299,253.916,94.732z"/>
		
			<linearGradient id="SVGID_00000175300749818122839940000014673779743087077250_" gradientUnits="userSpaceOnUse" x1="156.8861" y1="246.2706" x2="264.1105" y2="115.365">
			<stop  offset="0" style="stop-color:#5C1CB2"/>
			<stop  offset="0.1732" style="stop-color:#5C59CE"/>
			<stop  offset="0.3464" style="stop-color:#5C90E7"/>
			<stop  offset="0.4756" style="stop-color:#5CB2F6"/>
			<stop  offset="0.5456" style="stop-color:#5CBFFC"/>
			<stop  offset="0.9913" style="stop-color:#FF00C1"/>
		</linearGradient>
		<path style="fill:url(#SVGID_00000175300749818122839940000014673779743087077250_);" d="M251.803,94.67
			c44.759,0.455,39.314,50.341,39.314,50.341l-16.441-0.161c6.47-45.732-22.612-46.743-24.968-46.565
			c-3.482,0.263-26.038,0.033-31.859,46.009l-13.257-0.404C204.592,143.89,207.012,94.215,251.803,94.67z"/>
		
			<linearGradient id="SVGID_00000054251902754366224690000003876324782407624617_" gradientUnits="userSpaceOnUse" x1="248.1998" y1="145.2354" x2="245.8707" y2="104.0872">
			<stop  offset="0" style="stop-color:#606279"/>
			<stop  offset="0.2124" style="stop-color:#7D7F91;stop-opacity:0.7876"/>
			<stop  offset="0.6699" style="stop-color:#C6C7CF;stop-opacity:0.3301"/>
			<stop  offset="1" style="stop-color:#FFFFFF;stop-opacity:0"/>
		</linearGradient>
		<path style="fill:url(#SVGID_00000054251902754366224690000003876324782407624617_);" d="M251.803,94.67
			c44.759,0.455,39.314,50.341,39.314,50.341l-16.441-0.161c6.47-45.732-22.612-46.743-24.968-46.565
			c-3.482,0.263-26.038,0.033-31.859,46.009l-13.257-0.404C204.592,143.89,207.012,94.215,251.803,94.67z"/>
		
			<linearGradient id="SVGID_00000113321373782065782740000016603656660468382889_" gradientUnits="userSpaceOnUse" x1="153.074" y1="312.2874" x2="295.5738" y2="164.8522" gradientTransform="matrix(0.9841 -0.0072 0.0612 1.0157 -8.0454 -1.6818)">
			<stop  offset="0" style="stop-color:#5C1CB2"/>
			<stop  offset="0.1732" style="stop-color:#5C59CE"/>
			<stop  offset="0.3464" style="stop-color:#5C90E7"/>
			<stop  offset="0.4756" style="stop-color:#5CB2F6"/>
			<stop  offset="0.5456" style="stop-color:#5CBFFC"/>
			<stop  offset="0.9913" style="stop-color:#FF00C1"/>
		</linearGradient>
		<path style="fill:url(#SVGID_00000113321373782065782740000016603656660468382889_);" d="M230.225,196.287
			c16.901-1.32,30.427,15.253,30.323,37.134c-0.105,22.021-13.962,41.287-31.062,42.916c-17.226,1.642-31.035-15.229-30.728-37.562
			C199.063,216.586,213.201,197.617,230.225,196.287z"/>
		
			<linearGradient id="SVGID_00000183939118518769948230000013898058481994313616_" gradientUnits="userSpaceOnUse" x1="157.2106" y1="330.5876" x2="317.8951" y2="163.3174">
			<stop  offset="0" style="stop-color:#5C1CB2"/>
			<stop  offset="0.1732" style="stop-color:#5C59CE"/>
			<stop  offset="0.3464" style="stop-color:#5C90E7"/>
			<stop  offset="0.4756" style="stop-color:#5CB2F6"/>
			<stop  offset="0.5456" style="stop-color:#5CBFFC"/>
			<stop  offset="0.9913" style="stop-color:#FF00C1"/>
		</linearGradient>
		<path style="fill:url(#SVGID_00000183939118518769948230000013898058481994313616_);" d="M168.195,314.052l129.894,9.475
			c8.945,0.657,40.693-15.237,40.693-15.237c7.121-3.429-9.136-154.028-11.122-159.678c-0.487-1.37-9.95-8.624-9.928-8.503
			l-2.677,0.024l-130.61,1.353c-5.575,0.056-10.385,3.102-11.01,6.974l-23.571,147.092
			C147.332,311.185,155.764,312.673,168.195,314.052z M186.166,240.94c-0.159-28.789,19.144-54.131,43.056-56.759
			c23.849-2.621,43.48,18.331,43.909,46.952c0.43,28.799-18.723,54.533-42.842,57.324
			C206.107,291.254,186.326,269.91,186.166,240.94z"/>
		
			<linearGradient id="SVGID_00000098190040358531733120000009012380139011900817_" gradientUnits="userSpaceOnUse" x1="359.7628" y1="208.8225" x2="290.3706" y2="246.2723">
			<stop  offset="0" style="stop-color:#FFB445"/>
			<stop  offset="0.1102" style="stop-color:#FFAC4A"/>
			<stop  offset="0.2766" style="stop-color:#FF9858"/>
			<stop  offset="0.4784" style="stop-color:#FF7670"/>
			<stop  offset="0.7082" style="stop-color:#FF4690"/>
			<stop  offset="0.9583" style="stop-color:#FF0BBA"/>
			<stop  offset="1" style="stop-color:#FF00C1"/>
		</linearGradient>
		<path style="fill:url(#SVGID_00000098190040358531733120000009012380139011900817_);" d="M341.3,310.59
			c-26.27,10.92-29.41,12.86-38.49,12.96c-6.78,0.07-11.92-0.56-11.92-0.56c13.71-3.66,17.21-11.95,18.44-24.49
			c1.78-18.04,2.56-39.47,2.76-60.33c0.29-30.86-0.69-60.48-1.61-76.02c-1.09-18.38,4.57-22.02,7.25-22.04c0,0,6.75-1.51,9.93,8.5
			c1.73,5.45,15.3,93.44,20.63,134.03c0.24,1.81,0.46,3.53,0.66,5.14C350.41,299.37,348.62,307.55,341.3,310.59z"/>
		
			<linearGradient id="SVGID_00000088821496989534699130000004728341841280149436_" gradientUnits="userSpaceOnUse" x1="328.991" y1="238.6045" x2="319.9217" y2="311.7639">
			<stop  offset="0" style="stop-color:#FFB445"/>
			<stop  offset="0.1102" style="stop-color:#FFAC4A"/>
			<stop  offset="0.2766" style="stop-color:#FF9858"/>
			<stop  offset="0.4784" style="stop-color:#FF7670"/>
			<stop  offset="0.7082" style="stop-color:#FF4690"/>
			<stop  offset="0.9583" style="stop-color:#FF0BBA"/>
			<stop  offset="1" style="stop-color:#FF00C1"/>
		</linearGradient>
		<path style="fill:url(#SVGID_00000088821496989534699130000004728341841280149436_);" d="M341.3,310.59
			c-26.27,10.92-29.41,12.86-38.49,12.96c-6.78,0.07-11.92-0.56-11.92-0.56c13.71-3.66,17.21-11.95,18.44-24.49
			c1.78-18.04,2.56-39.47,2.76-60.33c2.1,0.18,4.32,0.45,6.68,0.81c21,3.25,27.65,31.79,29.52,43.66c0.5,3.16,0.66,5.14,0.66,5.14
			C350.41,299.37,348.62,307.55,341.3,310.59z"/>
		<path style="fill:#00191F;" d="M302.81,323.547c1.534-0.016,2.897-0.087,4.232-0.243c7.772-1.897,10.053-12.315,10.805-21.377
			c2.363-28.479,0.989-91.817-2.465-134.329c-1.544-18.999,1.355-22.7,3.699-23.995c3.916-2.164,6.717,0.874,6.717,0.874
			c-3.4-5.404-8.066-4.368-8.066-4.368c-2.677,0.024-8.341,3.657-7.251,22.044c1.543,26.042,3.251,91.613-1.146,136.342
			c-1.233,12.543-4.73,20.83-18.443,24.494C290.891,322.99,296.029,323.619,302.81,323.547z"/>
		<path style="fill:#00191F;" d="M271.512,175.835c-0.629,6.842,3.562,12.05,9.36,11.626c5.798-0.424,11.001-6.318,11.62-13.159
			c0.618-6.835-3.573-12.029-9.362-11.606C277.342,163.118,272.14,168.998,271.512,175.835z"/>
	</g>
</g>
<g id="TEXTS">
	<g>
		<g>
			
				<text transform="matrix(1.0084 0 0 1 99.2723 391.1204)" style="fill:#FFFFFF; font-family:'Viga-Regular'; font-size:43.5838px;">ONLINE STORE</text>
		</g>
		
			<text transform="matrix(1.0084 0 0 1 155.3228 413.8167)" style="fill:#FFFFFF; font-family:'Rubik-Regular'; font-size:15.223px;">TAGLINE HERE</text>
	</g>
</g>
</svg>
